<?xml version="1.0" encoding="utf-8"?>
<!-- Generator: Adobe Illustrator 24.0.2, SVG Export Plug-In . SVG Version: 6.00 Build 0)  -->
<svg version="1.1" id="Capa_1" xmlns="http://www.w3.org/2000/svg" xmlns:xlink="http://www.w3.org/1999/xlink" x="0px" y="0px"
	 viewBox="0 0 557.2 557.2" style="enable-background:new 0 0 557.2 557.2;" xml:space="preserve">
<g>
	<path d="M193.2,364c94.3,0,170.8-76.5,170.8-170.8c0-94.3-76.5-170.8-170.8-170.8c-94.3,0-170.8,76.5-170.8,170.8
		C22.4,287.5,98.9,364,193.2,364z M337.5,321.7l216.4,216.4c4.4,4.4,4.4,11.5,0,15.8c-4.4,4.4-11.5,4.4-15.8,0L321.7,337.5
		c-34.1,30.4-79.1,48.9-128.5,48.9C86.5,386.4,0,299.9,0,193.2C0,86.5,86.5,0,193.2,0s193.2,86.5,193.2,193.2
		C386.4,242.5,367.9,287.5,337.5,321.7L337.5,321.7z"/>
</g>
</svg>
